<?xml version="1.0" encoding="utf-8"?>
<!-- Generator: Adobe Illustrator 24.1.2, SVG Export Plug-In . SVG Version: 6.00 Build 0)  -->
<svg version="1.1" id="Capa_1" xmlns="http://www.w3.org/2000/svg" xmlns:xlink="http://www.w3.org/1999/xlink" x="0px" y="0px"
	 viewBox="0 0 200 200" style="enable-background:new 0 0 200 200;" xml:space="preserve">
<rect width="200" height="200"/>
<g>
	<linearGradient id="SVGID_1_" gradientUnits="userSpaceOnUse" x1="54.7435" y1="147.1228" x2="145.2926" y2="56.5737">
		<stop  offset="0" style="stop-color:#f2eee4"/>
		<stop  offset="0.4884" style="stop-color:#f2eee4"/>
		<stop  offset="1" style="stop-color:#f2eee4"/>
	</linearGradient>

	<path style="fill:#FFFDFD;" d="M83.6,54.8c7.2,0,14.2,0.1,20.9,0.4c6.1,0.3,12.3,0.6,18.6,0.6c2,0,3.9,0,5.8-0.1
		c1.5,0,3.1-0.2,4.7-0.4c1.8-0.2,3.8-0.4,5.6-0.4c1.7,0,3,0.2,4.2,0.6c1.9,0.6,1.2,7.3,0.9,10.9c-0.2,2.2-0.4,4-0.2,5.2l0-0.2
		c-0.4-2.1-0.2-4,0-6.3c0.1-0.5,0.1-1.1,0.2-1.7c0.3-3.5,0.3-5.5-0.9-6.7c-1-1.1-2.6-1.2-4.1-1.2c-0.6,0-1.3,0-2.3,0.1
		c-3.7,0.2-7.7,0.4-12.2,0.4c-5.9,0-11.9-0.2-17.7-0.4c-2.1-0.1-4.3-0.1-6.4-0.2c-5.1-0.1-10.6-0.2-17.7-0.2c-3,0-5.9,0-8.9,0
		c-3,0-5.9,0-8.9,0l-0.2,0c-0.4,0-0.8,0-1.1,0C70.5,54.9,77.1,54.8,83.6,54.8 M57.5,55.4c-1.5,0.6-2.7,2-2.8,5.3
		c0,2.6-0.1,5.5-0.5,8.6c0-0.5-0.1-1-0.1-1.6c-0.2-3.7-0.6-9.4,1.3-11.5c0.5-0.5,1.1-0.8,1.8-0.8C57.3,55.4,57.4,55.4,57.5,55.4
		 M54.2,72.1l0.7,0c2.3,0.1,4.7,0.3,6.9,0.5c0.6,0,1.2,0.1,1.8,0.1c-0.9,0-1.7,0-2.6,0l-0.3,0v0l-1,0c-2.3-0.1-4.7-0.2-7-0.3
		L52,72.2l0-0.1c0,0,0,0,0-0.1c0,0,0,0,0,0h1.4L54.2,72.1L54.2,72.1 M93.3,72.4c1.8,0,3.5,0,5.2,0.1c0.4,0,0.7,0,1.1,0h-0.9l-0.1,0
		c-2-0.1-3.9-0.1-5.8-0.1l0,0C92.9,72.4,93.1,72.4,93.3,72.4 M136.2,72.5c2.4,0,4.6,0,6.7,0.1l1.2,0l0,0h0.8c0.6,0,1.3,0,1.9,0
		l-0.4,0l-5.7,0.2l-1.2,0l0.3,1.2c0.3,1.3,0.2,2.8,0.1,4.2l-0.1,1.2l1.2-0.2c5.4-0.7,6.4-3.5,6.4-5.7l0-0.2l0.2,0.1c0,0,0,0.1,0,0.1
		l0.1,0.6c0.3,2.8,0.4,4.5-1.5,5c-0.2,0-0.4,0.1-0.6,0.1c-0.2,0-0.5,0.1-0.7,0.1l-0.8,0.2l0,0.8c0,3.3,0.1,6.5,0.1,9.8
		c0.1,14.1,0.3,28.7-0.8,43.2c-0.5-5-0.2-10.2,0.1-15.2c0.3-4.7,0.5-9.6,0.2-14.5c-0.5-7-0.9-15.2,0.2-22.9l0.2-1.3l-1.3,0.2
		c-1.4,0.2-2.9,0.2-4.7,0.2c-3.5,0-7.2-0.3-10.8-0.6c-1.6-0.1-3.2-0.3-4.7-0.4h0.5h0.6l0,0.1h1.3h2.4c0.6,0,1.4,0,2.3,0.1l0.2,0
		l0.9,0l0.2-0.9c0.1-0.4,0.1-0.7,0.1-1c0-1,0.1-1.8,0.3-2.6c0,0,0,0,0,0l0.1,0.1c0.2,0.9,0.2,1.8,0,2.9l0,0.1v0.1
		c0,0.1,0,0.2-0.1,0.4l-0.3,1.2l1.2,0.1l1.1,0.1c1.4,0.1,2.9,0.2,4.3,0.2c0.3,0,0.6,0,0.9,0l1.2,0l-0.3-1.2
		c-0.4-1.5-0.5-3.1-0.5-4.5v-1h-1c-1,0-2,0-2.9,0c-0.7,0-1.3,0-2,0l0.1-0.1l-2.5,0.1c-1.8,0.1-3.6,0.1-5.4,0.1h-0.7l0-0.1h-1.2
		c-2.4,0-4.7,0-7.1-0.1l-1.2,0l0,0l-0.8,0c-1,0-2,0-3-0.1c-1,0-2,0-3-0.1l-0.1,2c-0.4,0-0.7-0.2-0.8-0.6c0.1-0.2,0.1-0.3,0.1-0.4v-1
		l-1,0l-3.1-0.1l-3.1-0.1l-0.4,0l0,0c3.3,0.1,6.9,0.2,10.9,0.2c4.2,0,8.5-0.1,12.6-0.1C127.8,72.6,132,72.5,136.2,72.5 M51.8,73.4
		L51.8,73.4c0.2,1.3,0.2,2.6,0,4l0,0.4c0,0,0,0,0,0C51.2,76.4,51.2,74.8,51.8,73.4 M115.5,74L115.5,74c0.2,0.8,0.2,1.6,0.1,2.5
		c0-0.3,0-0.6,0-0.8C115.5,75.1,115.5,74.6,115.5,74 M67.4,74c0.1,1,0.1,2,0.1,3v1h1h5.6l1,0v0h0.9c1.6,0,3.1,0,4.7,0.1
		c-5.1,0.4-9.3,0.6-13.2,0.6c-3.3,0-6.3-0.1-9.2-0.4c0.5,0,1,0,1.6-0.1l1.2,0l0.1,0c0.8,0,1.7,0,2.5-0.1c0.9,0,1.7,0,2.6-0.1l1.1,0
		L67.3,77C67.2,75.9,67.3,74.9,67.4,74 M99.5,74.1c0,0.2,0,0.5-0.1,0.8l0,0l0,0c0,0.3-0.1,0.7-0.1,1C99.2,75.4,99.3,74.7,99.5,74.1
		 M107.6,74.2c0.3,1.1,0.4,2.5,0.2,3.4l0,0.1l-0.1-0.3C107.3,76.6,107.3,75.3,107.6,74.2C107.6,74.3,107.6,74.2,107.6,74.2
		 M91.1,74.4c0.1,0.9,0.2,1.9,0.1,2.9l0,0.5l0,0l-0.1-0.7C91,76.3,91,75.4,91.1,74.4 M124.5,74.4c0.1,1.2,0,2.3-0.3,3.3
		C124.1,76.6,124.3,75.5,124.5,74.4 M75.1,75.5L75.1,75.5c0,0.1,0,0.2,0,0.3C75.2,75.7,75.1,75.6,75.1,75.5
		C75.1,75.5,75.1,75.5,75.1,75.5 M54.7,82.3c1.2,3.6,1,8.5,0.7,12.9c-0.1-1.1-0.1-2.3-0.2-3.4C55,88.7,54.8,85.5,54.7,82.3
		 M97.2,87.4c0.1,0,0.3,0,0.4,0c5.2,0.2,9.1,1.7,12,4.8c6.9,7.4,6.2,22.4,5.7,34.4c-0.1,1.2-0.1,2.4-0.1,3.5
		c-0.3-4.5-0.4-8.6-0.4-12.6c0.1-10.7-1-23.5-9.7-27.4c-2.6-1.1-5-1.7-7.2-1.7c-3.3,0-6.2,1.3-8.6,4c-6.8,7.6-7.7,25-7.1,37
		c-1.3-11.1-1-28.8,5.7-37.3C90.3,88.9,93.4,87.4,97.2,87.4 M54.6,130.4c0.1,2.4,0.1,4.8,0.3,7.2H52H51c-0.1-0.1,0-0.4,0-0.4
		c0.1,0,0.2,0,0.2,0C52.5,137.1,53.7,136.4,54.6,130.4 M85.8,136.6c0.3,0,0.5,0,0.9,0c0,0,0.1,0.1,0.1,0.1c0,1,0,1.9-0.1,2.7
		c0,0,0-0.1,0-0.1c0-1.1-0.8-2.4-3.1-2.4c-0.2,0-0.3,0-0.5,0l0,0c0-0.1,0-0.1,0-0.2l0-0.1l0.5,0l0.1,0
		C84.5,136.7,85.2,136.6,85.8,136.6 M146.6,137.3c1.6,0,1.8,0.6,1.9,1.3c0,0.2,0.1,0.5,0.1,0.7c0.3,1.4,0.7,3.8-0.3,4.4l0,0l0,0
		c-1.1,0.8-2.9,1.2-5.5,1.2c-2.4,0-5-0.4-6.9-0.6c-0.4-0.1-0.7-0.1-1.1-0.1c-3.6-0.4-7.1-0.6-10.8-0.6c-2,0-4,0.1-6.2,0.2
		c2.8-0.5,5.3-0.7,7.7-0.7c0.5,0,1.1,0,1.6,0c1.6,0.1,3.2,0.2,4.8,0.4c2.3,0.2,4.7,0.5,7,0.5c0.3,0,0.6,0,0.8,0l0.3,0
		c0.2,0,0.5,0,0.8,0c4.8,0,6-0.7,6.6-1.3c0.3-0.3,0.5-0.7,0.5-1.1c0.2-1,0.1-1.8-0.4-2.4c-0.6-0.8-1.6-1.2-3.1-1.3l-0.1,0l-0.1,0
		c0,0,0,0-0.1,0c-0.1,0-0.2,0-0.2-0.1c0,0,0,0,0-0.1l0.5-0.1C145.2,137.5,145.9,137.3,146.6,137.3 M113.7,137.7c0.2,0,0.5,0,0.8,0
		c-1.3,0.3-2.2,0.9-2.7,1.6c0-0.4,0-0.9,0-1.3c0.2,0,0.4-0.1,0.6-0.1C113.1,137.7,113.3,137.7,113.7,137.7 M51.2,139.6
		c0.9,3,2.7,3.5,6,3.5c0.6,0,1.2,0,2,0l0.1,0c1.5,0,2.9-0.1,4.4-0.1c2.5-0.1,5.1-0.2,7.6-0.2c0.4,0,0.8,0,1.2,0c1.3,0,2.7,0.1,4,0.3
		c1.5,0.1,3,0.3,4.5,0.3c0.4,0,0.7,0,1.1,0c2.6-0.1,4.5-1.9,4.8-3.5c-0.3,2.7-1.1,3.8-4.2,3.8c-0.2,0-0.3,0-0.5,0
		c-4.4-0.2-8.7-0.2-13.4-0.2l-1,0l-1,0c-5.4,0-10.3,0-15.2-0.2c-0.1,0-0.1,0-0.1,0l0,0c0,0,0,0,0-0.1
		C51.3,141.7,51.2,140.7,51.2,139.6 M111.8,142.4c0.5,0.7,1.4,1.4,2.6,1.6c-0.8,0.1-1.7,0.1-2.6,0.2
		C111.9,143.6,111.8,143,111.8,142.4 M83.6,53.8c-8.8,0-17.6,0.2-26.4,0.6c-6.2,0.3-3.8,12.7-3.9,16.7c-0.5,0-0.9,0-1.4,0
		c-0.9,0-1.2,0.9-0.9,1.5c-0.8,1.7-0.9,3.8-0.2,5.5c0.2,0.5,0.6,0.7,0.9,0.7c0.2,0,0.5-0.1,0.7-0.3c0.4,0.1,0.8,0.2,1.3,0.2
		c-0.2,8.7,1.1,17.4,0.9,26.2c-0.1,3.5,0.3,31.2-3.3,31.2c0,0-0.1,0-0.1,0c-0.1,0-0.1,0-0.2,0c-1.1,0-1.3,1.5-0.7,2.2
		c-0.3,1.6-0.2,2.9,0.1,4.8c0.1,0.6,0.4,1,1,1c5.1,0.2,10.2,0.2,15.3,0.2c0.6,0,1.3,0,1.9,0c4.4,0,8.9,0,13.4,0.2c0.2,0,0.3,0,0.5,0
		c5.2,0,5.3-3.1,5.3-7.8c0-0.6-0.5-1.1-1.1-1.1c-0.3,0-0.6,0-0.9,0c-0.7,0-1.4,0-2.2,0.1c-1.4-12.2-2-46.3,14.2-46.3
		c2,0,4.2,0.5,6.8,1.6c8.8,4,9.2,18.3,9.1,26.5c-0.1,6.5,0.3,12.8,0.9,19.2c-0.4,0-0.7,0-1,0c-0.6,0-0.9,0.1-2.3,0.4
		c-0.4,0.1-0.6,0.5-0.6,0.8c0,2.2,0,4.3,0.1,6.5c0,0.4,0.3,0.8,0.7,0.8c0,0,0,0,0.1,0c4.3-0.4,8.3-0.7,12.4-0.7
		c3.5,0,7,0.2,10.7,0.6c2,0.3,5.1,0.8,8.1,0.8c2.4,0,4.6-0.3,6.1-1.4c1.8-1.1,0.9-4.4,0.6-6.1c-0.3-1.7-1.5-2.1-2.9-2.1
		c-0.8,0-1.6,0.1-2.3,0.3c1.7-18.7,1.1-37.4,1-56.1c0.4-0.1,0.9-0.2,1.3-0.3c3-0.8,2.4-4.1,2.1-6.6c-0.1-0.4-0.2-0.6-0.4-0.8
		c0.1-0.5-0.2-1.1-0.9-1.1c-0.8-0.1-1.7-0.1-2.5-0.1c-0.6-3,2.5-15.8-1.4-17.1c-1.4-0.5-2.9-0.6-4.5-0.6c-3.5,0-7.2,0.8-10.3,0.9
		c-1.9,0.1-3.8,0.1-5.7,0.1c-6.2,0-12.4-0.3-18.5-0.6C97.6,53.9,90.6,53.8,83.6,53.8L83.6,53.8z M71.3,72.1c-5.5,0-10.9-0.8-16.3-1
		c0.5-3.4,0.7-6.8,0.7-10.5c0.1-4,1.8-4.7,4.4-4.7c1.3,0,2.9,0.2,4.6,0.2c0.1,0,0.2,0,0.2,0c5.9,0,11.9,0,17.8,0
		c5.9,0,11.8,0,17.7,0.2c8,0.2,16.1,0.6,24.2,0.6c4.1,0,8.2-0.1,12.3-0.4c0.8-0.1,1.6-0.1,2.2-0.1c3.9,0,4.5,1.2,4,6.9
		c-0.3,2.9-0.7,5.4-0.2,8.2c-2.2,0-4.5-0.1-6.7-0.1c-8.4,0-16.8,0.2-25.2,0.2c-4.2,0-8.4-0.1-12.5-0.2c-1.7-0.1-3.5-0.1-5.2-0.1
		c-6.7,0-13.4,0.4-20.1,0.6C72.5,72.1,71.9,72.1,71.3,72.1L71.3,72.1z M52.8,77.5c0.2-1.4,0.2-2.8-0.1-4.2c2.4,0.2,4.7,0.3,7.1,0.3
		c0,0,0,0,0,0.1c-0.4,1-0.3,2.5,0.2,3.6C57.5,77.4,55.2,77.4,52.8,77.5L52.8,77.5z M90.1,77.3c-2-0.1-4.1-0.1-6.1-0.2
		c0.3-1.1,0.2-2.6,0-3.7c2.1-0.1,4.3-0.1,6.4-0.1c-0.1,0.1-0.1,0.1-0.1,0.2C90,74.8,89.9,76.1,90.1,77.3L90.1,77.3z M98.8,77.6
		c-2.2-0.1-4.4-0.2-6.6-0.2c0.1-1.3,0.1-2.6-0.2-3.8c0-0.1-0.1-0.1-0.1-0.2c2.2,0,4.4,0,6.6,0.1c0.1,0,0.1,0,0.1,0
		C98.1,74.8,98.1,76.5,98.8,77.6L98.8,77.6L98.8,77.6z M82.4,77.2c-2.1-0.1-4.2-0.1-6.3-0.1c0.1-0.5,0.1-1,0.1-1.6
		c0-0.3-0.1-0.5-0.3-0.6c0.1-0.4,0.2-0.8,0.1-1.3c2.2-0.1,4.3-0.1,6.5-0.1c-0.2,0.7-0.2,1.5-0.2,2.2C82.4,76.2,82.3,76.7,82.4,77.2
		L82.4,77.2z M106.7,77.8c-1.5-0.1-3-0.1-4.5-0.1c-0.7-0.1-1.4-0.1-2.1-0.1c0.1-0.1,0.2-0.2,0.2-0.3c0.1-0.7,0.1-1.5,0.2-2.2
		c0.1-0.5,0.2-1,0.1-1.5c2.1,0.1,4.1,0.1,6.2,0.2c0,0.1-0.1,0.1-0.1,0.1C106.3,75,106.2,76.6,106.7,77.8L106.7,77.8z M141,78.4
		c0.1-1.5,0.2-3.1-0.2-4.5c1.9-0.1,3.8-0.1,5.7-0.2C146.6,76.7,144.2,78,141,78.4L141,78.4z M68.5,77.1c0-1.1-0.1-2.2-0.2-3.3
		c1.9,0,3.8-0.1,5.7-0.1c-0.2,0.9,0.1,2,0.2,2.9c0,0.2-0.1,0.3-0.1,0.5C72.3,77.1,70.4,77.1,68.5,77.1L68.5,77.1z M61.2,77.2
		c0-0.4-0.1-0.7,0-1c0.1-0.8,0.1-1.7-0.1-2.5c1.7,0.1,3.6,0.1,5.3,0.1c-0.2,1.1-0.2,2.2-0.1,3.4C64.6,77.2,62.9,77.2,61.2,77.2
		L61.2,77.2z M108.5,73.8C108.5,73.8,108.5,73.8,108.5,73.8C108.5,73.8,108.5,73.8,108.5,73.8c2,0.1,4,0.1,6,0.1
		c-0.1,1.4,0.2,2.7,0.1,4.1c-1.9-0.1-3.9-0.1-5.8-0.1C109,76.6,108.9,75,108.5,73.8C108.5,73.8,108.5,73.8,108.5,73.8L108.5,73.8z
		 M116.3,78c0.3-1.3,0.4-2.7,0.2-4.1c2.4,0.1,4.7,0.1,7.1,0.1c-0.3,1.3-0.5,2.7-0.3,4C121,78,118.6,78,116.3,78L116.3,78z
		 M137.8,78.6c-1.8,0-3.6-0.1-5.3-0.2c0.1-0.2,0.1-0.4,0.1-0.6c0.2-1.3,0.3-2.3-0.1-3.4c-0.1-0.2-0.2-0.3-0.3-0.4
		c1.9,0,3.9-0.1,5.9-0.1c0,1.5,0.2,3.1,0.6,4.7C138.4,78.6,138.1,78.6,137.8,78.6L137.8,78.6z M125.2,78c0.4-1.3,0.4-2.7,0.3-4
		c1.8,0,3.6,0,5.4-0.1c-0.1,0.1-0.3,0.3-0.3,0.4c-0.3,1-0.4,1.9-0.4,3c0,0.3,0,0.5-0.1,0.8c-0.9-0.1-1.8-0.1-2.5-0.1
		C126.8,78,126,78,125.2,78L125.2,78z M91.1,79c0.2,0,0.4-0.1,0.5-0.2c9.1,0.1,18.3,0.9,27.3,1c5.5,0.1,12.8,1.2,19.3,1.2
		c1.7,0,3.3-0.1,4.8-0.3c-1.1,7.5-0.8,15.5-0.2,23.1c0.8,11.1-1.7,22.2,0.2,33.2c-0.4,0.7,0.1,1.8,1.2,1.8c0.1,0,0.1,0,0.2,0
		c2.1,0.1,3,0.9,2.6,2.6c0,1.3-4,1.5-6.1,1.5c-0.5,0-0.9,0-1.1,0c-0.3,0-0.6,0-0.8,0c-3.9,0-7.9-0.7-11.8-0.8c-0.6,0-1.1,0-1.6,0
		c-3,0-5.9,0.4-8.9,0.9c-0.4,0.1-0.9,0.1-1.2,0.1c-3.9,0-4.5-4-0.2-4.4c0.7-0.1,1-0.8,0.8-1.3c0-0.1,0-0.1,0-0.1
		c-0.6-16.4,6.6-50.1-18.4-50.9c-0.2,0-0.3,0-0.5,0c-19.6,0-17.7,38.6-14.9,50c-0.3,0.7-0.1,1.7,0.8,1.7c0,0,0.1,0,0.1,0
		c0.1,0,0.3,0,0.4,0c3.7,0,2,4.1-1.8,4.3c-0.3,0-0.7,0-1,0c-2.8,0-5.7-0.5-8.5-0.5c-0.4,0-0.8,0-1.2,0c-4,0-8,0.2-12,0.3
		c-0.7,0-1.4,0-2,0c-3.3,0-4.6-0.4-5.2-3.6h2.9c0.5,0,1-0.5,1-1c-0.8-10.8-0.1-21.8-0.2-32.7c-0.1-7,3.1-19.7-1.6-25.9c0,0,0,0,0,0
		c0,0,0,0,0,0c0,0.1,0.1,0.1,0.2,0.1c0.1,0,0.2-0.1,0.3-0.2c4.4,0.7,8.7,0.9,13.1,0.9c4.5,0,9-0.3,13.5-0.7c3.1-0.3,6.2-0.4,9.4-0.4
		C90.7,78.9,90.9,79,91.1,79L91.1,79z"/>
</g>
</svg>
